<svg id="Layer_1" data-name="Layer 1" xmlns="http://www.w3.org/2000/svg" viewBox="0 0 718.96 170.88"><defs><style>.cls-1{fill:#000002;}.cls-2{fill:#201600;}</style></defs><title>A510 LOGO 2016 2</title><g id="LWPOLYLINE"><polygon class="cls-1" points="37.82 0 75.64 28.37 75.64 75.64 0 75.64 0 28.37 37.82 0"/></g><g id="LWPOLYLINE-2" data-name="LWPOLYLINE"><path class="cls-1" d="M134,10.54l32.82,24.62V74.93H101.17V35.16L134,10.54m0-6.25L96.17,32.66V79.93h75.64V32.66L134,4.29h0Z" transform="translate(-3.71 -4.29)"/></g><g id="LWPOLYLINE-3" data-name="LWPOLYLINE"><path class="cls-1" d="M41.53,103l32.82,24.62v39.78H8.71V127.61L41.53,103m0-6.25L3.71,125.11v47.28H79.36V125.11L41.53,96.74h0Z" transform="translate(-3.71 -4.29)"/></g><g id="LWPOLYLINE-4" data-name="LWPOLYLINE"><path class="cls-1" d="M134,103l32.82,24.62v39.78H101.17V127.61L134,103m0-6.25L96.17,125.11v47.28h75.64V125.11L134,96.74h0Z" transform="translate(-3.71 -4.29)"/></g><path class="cls-2" d="M280.86,5.7l81.38,166.66h-7.59l-30.81-62.06h-87l-30.38,62.06H199.7Zm-0.65,15L239.63,104h81.59Z" transform="translate(-3.71 -4.29)"/><path class="cls-2" d="M476.38,9.6V15.9H393.7l-5.86,55.77a49.14,49.14,0,0,1,19.53-15,62.26,62.26,0,0,1,25.17-5.21q25.82,0,43.83,18.12a59.64,59.64,0,0,1,18,43.62,58.75,58.75,0,0,1-18.12,43.4q-18.12,17.9-43.73,17.9a60.56,60.56,0,0,1-37.65-13q-17-13-21.81-33h6.73a55.27,55.27,0,0,0,20,28.64,54.06,54.06,0,0,0,71.61-4.88,53.4,53.4,0,0,0,16.06-39.06,54.13,54.13,0,0,0-16.06-39.28q-16.06-16.38-38.84-16.38a51.55,51.55,0,0,0-25.39,6.62,57.87,57.87,0,0,0-19.75,17.9h-7.59L387.41,9.6h89Z" transform="translate(-3.71 -4.29)"/><path class="cls-2" d="M527.59,172.35v-156H502V10h32.77V172.35h-7.16Z" transform="translate(-3.71 -4.29)"/><path class="cls-2" d="M640,175.17h-3.25q-33.64,0-58-25.17T554.28,90.87q0-34,24.74-58.81T638.47,7.22q34.72,0,59.46,24.74t24.74,59.46a81.6,81.6,0,0,1-11.07,41.23,84.94,84.94,0,0,1-30.27,30.92A78.51,78.51,0,0,1,640,175.17ZM715.51,91.3q0-32-22.68-54.9T638.36,13.51q-31.79,0-54.36,22.89T561.44,91.3q0,32,22.57,54.79t54.36,22.79q31.79,0,54.47-22.79T715.51,91.3Z" transform="translate(-3.71 -4.29)"/></svg>