<?xml version="1.0" encoding="utf-8"?>
<!-- Generator: Adobe Illustrator 19.2.1, SVG Export Plug-In . SVG Version: 6.00 Build 0)  -->
<svg version="1.1" id="Layer_1" xmlns="http://www.w3.org/2000/svg" xmlns:xlink="http://www.w3.org/1999/xlink" x="0px" y="0px"
	 viewBox="0 0 481 240.5" style="enable-background:new 0 0 481 240.5;" xml:space="preserve">
<style type="text/css">
	.st0{fill:#110E11;}
	.st1{fill:none;}
</style>
<g id="HATCH_3_">
	<path class="st0" d="M121.2,152.4l-14.7,10.3v77.8h14.7v-29.4h14.7v29.4h14.7v-77.8l-14.7-10.3L121.2,152.4L121.2,152.4z
		 M246,240.5l14.7-10.3V192L246,181.7h-14.7V167h29.4v-14.7h-44.1v44.1H246v29.4h-14.7v-14.7h-14.7v19.1l14.7,10.3L246,240.5
		L246,240.5z M326.8,162.7v4.4h14.7v58.7h-14.7v14.7h44.1v-14.7h-14.7v-73.4h-14.7L326.8,162.7L326.8,162.7z M451.6,152.4
		l-14.7,10.3v67.5l14.7,10.3h14.7l14.7-10.3v-67.5l-14.7-10.3H451.6L451.6,152.4z M451.6,167.1h14.7v58.7h-14.7V167.1L451.6,167.1z
		 M121.2,167.1h14.7v29.4h-14.7V167.1L121.2,167.1z"/>
</g>
<g id="LWPOLYLINE_11_">
	<polygon class="st1" points="246,240.5 260.7,230.2 260.7,192.1 246,181.8 231.3,181.8 231.3,167.1 260.7,167.1 260.7,152.4 
		216.7,152.4 216.7,196.5 246,196.5 246,225.8 231.3,225.8 231.3,211.1 216.7,211.1 216.7,230.2 231.3,240.5 	"/>
</g>
<g id="LWPOLYLINE_10_">
	<polygon class="st1" points="326.8,162.7 326.8,167.1 341.5,167.1 341.5,225.8 326.8,225.8 326.8,240.5 370.9,240.5 370.9,225.8 
		356.2,225.8 356.2,152.4 341.5,152.4 	"/>
</g>
<g id="LWPOLYLINE_9_">
	<polygon class="st1" points="451.6,152.4 436.9,162.7 436.9,230.2 451.6,240.5 466.3,240.5 481,230.2 481,162.7 466.3,152.4 	"/>
</g>
<g id="LWPOLYLINE_8_">
	<rect x="451.6" y="167.1" class="st1" width="14.7" height="58.7"/>
</g>
<g id="LWPOLYLINE_7_">
	<polygon class="st1" points="121.2,152.4 106.5,162.7 106.5,240.5 121.2,240.5 121.2,211.1 135.9,211.1 135.9,240.5 150.6,240.5 
		150.6,162.7 135.9,152.4 	"/>
</g>
<g id="LWPOLYLINE_6_">
	<rect x="121.2" y="167.1" class="st1" width="14.7" height="29.4"/>
</g>
<g id="HATCH_2_">
	<path class="st0" d="M110.2,38.6l73.4,73.4l55.1-38.6L165.3,0L110.2,38.6L110.2,38.6z M330.5,38.6l73.4,73.4L459,73.4L385.6,0
		L330.5,38.6L330.5,38.6z M220.3,38.6l73.4,73.4l55.1-38.6L275.4,0L220.3,38.6L220.3,38.6z M0,38.6v128.5l73.4,73.4V112l55.1-38.6
		L55.1,0L0,38.6L0,38.6z"/>
</g>
<g id="REGION_1_">
	<line class="st1" x1="110.2" y1="38.6" x2="183.6" y2="112"/>
	<line class="st1" x1="183.6" y1="112" x2="238.7" y2="73.5"/>
	<line class="st1" x1="238.7" y1="73.5" x2="165.3" y2="0"/>
	<line class="st1" x1="165.3" y1="0" x2="110.2" y2="38.6"/>
	<line class="st1" x1="330.5" y1="38.6" x2="403.9" y2="112"/>
	<line class="st1" x1="403.9" y1="112" x2="459" y2="73.5"/>
	<line class="st1" x1="459" y1="73.5" x2="385.5" y2="0"/>
	<line class="st1" x1="385.5" y1="0" x2="330.5" y2="38.6"/>
	<line class="st1" x1="220.3" y1="38.6" x2="293.8" y2="112"/>
	<line class="st1" x1="293.8" y1="112" x2="348.8" y2="73.5"/>
	<line class="st1" x1="348.8" y1="73.5" x2="275.4" y2="0"/>
	<line class="st1" x1="275.4" y1="0" x2="220.3" y2="38.6"/>
	<line class="st1" x1="0" y1="38.6" x2="0" y2="167.1"/>
	<line class="st1" x1="0" y1="167.1" x2="73.5" y2="240.5"/>
	<line class="st1" x1="73.5" y1="240.5" x2="73.5" y2="112"/>
	<line class="st1" x1="73.5" y1="112" x2="128.5" y2="73.5"/>
	<line class="st1" x1="128.5" y1="73.5" x2="55.1" y2="0"/>
	<line class="st1" x1="55.1" y1="0" x2="0" y2="38.6"/>
</g>
</svg>
