<svg id="Layer_1" data-name="Layer 1" xmlns="http://www.w3.org/2000/svg" viewBox="0 0 718.96 170.88"><defs><style>.cls-1{fill:#000002;}.cls-2{fill:#201600;}</style></defs><title>A510 LOGO 2016 2</title><g id="LWPOLYLINE"><polygon class="cls-1" points="37.82 0 75.64 28.37 75.64 75.64 0 75.64 0 28.37 37.82 0"/></g><g id="LWPOLYLINE-2" data-name="LWPOLYLINE"><path class="cls-1" d="M134,10.54l32.82,24.62V74.93H101.17V35.16L134,10.54m0-6.25L96.17,32.66V79.93h75.64V32.66L134,4.29h0Z" transform="translate(-3.71 -4.29)"/></g><g id="LWPOLYLINE-3" data-name="LWPOLYLINE"><path class="cls-1" d="M41.53,103l32.82,24.62v39.78H8.71V127.61L41.53,103m0-6.25L3.71,125.11v47.28H79.36V125.11L41.53,96.74h0Z" transform="translate(-3.71 -4.29)"/></g><g id="LWPOLYLINE-4" data-name="LWPOLYLINE"><path class="cls-1" d="M134,103l32.82,24.62v39.78H101.17V127.61L134,103m0-6.25L96.17,125.11v47.28h75.64V125.11L134,96.74h0Z" transform="translate(-3.71 -4.29)"/></g></svg>